<?xml version="1.0" encoding="utf-8"?>
<svg version="1.1" xmlns="http://www.w3.org/2000/svg"
     viewBox="0 0 24 24">
  <title>cog</title>
  <path
    d="M21,11.9059683 L20.14232,8.14677034 L17.8696753,7.89425426 L17.2916736,7.1691625 L17.5520161,4.89835927 L14.0771001,3.22604448 L12.4639436,4.84380475 L11.5360564,4.84380475 L9.92243948,3.22604448 L6.44798394,4.89858946 L6.70832641,7.16939269 L6.13032469,7.89448444 L3.85767996,8.14700052 L3,11.9059683 L4.93657046,13.1192885 L5.14327915,14.0234664 L3.92351369,15.9563538 L6.32897681,18.9713544 L8.48468611,18.2133458 L9.32072842,18.6159443 L10.0716012,20.7739555 L13.9281686,20.7739555 L14.6790414,18.6159443 L15.5150837,18.2133458 L17.670793,18.9713544 L20.0762561,15.9563538 L18.8564907,14.0234664 L19.0629692,13.1192885 L21,11.9059683 L21,11.9059683 Z M17.2032815,17.3427753 L15.4324463,16.7201171 L13.5633208,17.6203819 L12.9464174,19.3925982 L11.0535826,19.3925982 L10.4366792,17.6203819 L8.56755374,16.7201171 L6.79671854,17.3427753 L5.61585483,15.8626674 L6.61786258,14.2750617 L6.15518498,12.2530916 L4.56504725,11.2566083 L4.98606085,9.41119225 L6.85265419,9.20379298 L8.1456194,7.58188933 L7.93154469,5.71713749 L9.63723672,4.89605739 L10.9626584,6.2249319 L13.0371114,6.2249319 L14.3623029,4.89605739 L16.0682251,5.7169073 L15.8541504,7.58165914 L17.1471156,9.2035628 L19.013709,9.41096206 L19.4347226,11.2563781 L17.8441245,12.2528614 L17.3823676,14.2750617 L18.3841452,15.8626674 L17.2032815,17.3427753 Z M8.2737637,12.1083034 C8.2737637,14.1995441 9.94167858,15.8935829 12.0001151,15.8935829 C14.0585516,15.8935829 15.7264665,14.1995441 15.7264665,12.1083034 C15.7264665,10.0170626 14.0585516,8.3230239 12.0001151,8.3230239 C9.94167858,8.3230239 8.2737637,10.0170626 8.2737637,12.1083034 Z M12.0001151,14.5252759 C10.6673274,14.5252759 9.58314258,13.4410911 9.58314258,12.1083034 C9.58314258,10.7755157 10.6673274,9.69133087 12.0001151,9.69133087 C13.3329028,9.69133087 14.4170876,10.7755157 14.4170876,12.1083034 C14.4170876,13.4410911 13.3329028,14.5252759 12.0001151,14.5252759 L12.0001151,14.5252759 Z"/>
</svg>
