<?xml version="1.0" encoding="utf-8"?>
<svg version="1.1" xmlns="http://www.w3.org/2000/svg"
     viewBox="0 0 24 24">
  <title>envelope</title>
  <path
    d="M22,5.83081573 L22,18.2089833 C22,18.7133094 21.8302743,19.138099 21.4922136,19.482613 C21.1533669,19.8278046 20.7237619,20 20.2030964,20 L3.79684311,20 C3.27557298,20 2.84590757,19.827743 2.5077864,19.482613 C2.16900012,19.138099 2,18.7133094 2,18.2089833 L2,5.83081573 C2,5.32710576 2.16906058,4.90231609 2.5077864,4.55718604 C2.87214945,4.18593404 3.30187533,4 3.79684311,4 L20.203036,4 C20.69752,4 21.127125,4.18593404 21.4921531,4.55718604 C21.8302743,4.90231609 22,5.32710576 22,5.83081573 L22,5.83081573 L22,5.83081573 Z M20.5546408,6.22880576 L20.5546408,5.95021275 L20.5546408,5.83081573 C20.5546408,5.72509578 20.541278,5.67161972 20.5156408,5.67161972 C20.489278,5.64549778 20.4765803,5.61875974 20.4765803,5.59202172 C20.4503384,5.51242371 20.4112779,5.47262471 20.3593384,5.47262471 C20.3330965,5.49936274 20.2812779,5.49936274 20.2030964,5.47262471 L3.79684311,5.47262471 C3.71872213,5.47262471 3.62711742,5.49936274 3.52341966,5.55222271 C3.47093591,5.60569878 3.44529868,5.69835775 3.44529868,5.83081573 C3.44529868,7.10444543 3.99214558,8.17908011 5.08589982,9.05471978 C5.42402099,9.32025183 6.10764007,9.87066095 7.1366966,10.70644 C8.16514848,11.5422807 8.96588857,12.1990258 9.53903779,12.6766139 L9.65621929,12.7960108 C9.75997749,12.8494869 9.85152175,12.9154078 9.92964271,12.9950059 C10.2421267,13.2605996 10.4111872,13.4067346 10.4374291,13.4327949 C10.5674292,13.486271 10.7364898,13.6056679 10.9452155,13.7909859 C11.2052157,13.9501819 11.3876996,14.056518 11.4920624,14.109378 C11.7520626,14.162854 11.9217278,14.188976 11.9998489,14.188976 C12.0779698,14.188976 12.2470304,14.162854 12.5076352,14.109378 C12.6113934,14.056518 12.7938773,13.9501819 13.0544821,13.7909859 C13.2626032,13.6056679 13.4316638,13.486271 13.5622685,13.4327949 C13.5879058,13.4066729 13.7575105,13.2605379 14.0701154,12.9950059 C14.1481759,12.9154078 14.2391155,12.8494869 14.3434784,12.7960108 L14.4606599,12.6766139 C15.0332044,12.1990258 15.834005,11.5422807 16.8630615,10.70644 C17.8914529,9.87066095 18.575072,9.32025183 18.9137979,9.05471978 C19.3044632,8.76306579 19.6816449,8.32521515 20.0465521,7.74129108 C20.3850361,7.21078147 20.5546408,6.7064554 20.5546408,6.22880576 L20.5546408,6.22880576 L20.5546408,6.22880576 Z M20.5546408,18.2089833 L20.5546408,9.45270981 C20.3203383,9.71830346 20.0724312,9.97009684 19.8125519,10.2089525 C18.0412251,11.5889182 16.4530473,12.8756089 15.04693,14.0696405 C14.9425067,14.1492386 14.7795531,14.2754741 14.5586134,14.4477927 C14.3370691,14.6206658 14.1875387,14.7462852 14.1093573,14.8258832 C13.7968733,15.0385553 13.4843894,15.2238732 13.1719055,15.3830693 C12.6768772,15.5690033 12.2863327,15.6616623 12.0000302,15.6616623 C11.7131835,15.6616623 11.3225182,15.5690033 10.828155,15.3830693 C10.5156711,15.2238732 10.2031266,15.0385553 9.89064273,14.8258832 C9.8125217,14.7462852 9.66238672,14.6206658 9.44138659,14.4477927 C9.21984224,14.2755357 9.05688861,14.1493002 8.95313041,14.0696405 C7.54689223,12.8756089 5.95810973,11.5889182 4.1875085,10.2089525 C3.92690367,9.97015845 3.6797221,9.71830346 3.44535914,9.45270981 L3.44535914,18.2089833 C3.44535914,18.3153193 3.47099637,18.3949173 3.52348013,18.4477773 C3.60160112,18.5273753 3.69254072,18.5671743 3.79690358,18.5671743 L20.2030964,18.5671743 C20.3069151,18.5671743 20.3983989,18.5273753 20.4765803,18.4477773 C20.5283989,18.3949173 20.5546408,18.3153193 20.5546408,18.2089833 L20.5546408,18.2089833 L20.5546408,18.2089833 Z"/>
</svg>
