<?xml version="1.0" encoding="utf-8"?>
<svg version="1.1" xmlns="http://www.w3.org/2000/svg"
     xmlns:xlink="http://www.w3.org/1999/xlink"
     viewBox="0 0 24 24">
  <title>integration</title>
  <path d="M8.6,16.7c3.4-0.7,5.2-3.8,5.2-6.2V7.4H11V3.7c0-0.5-0.4-0.9-0.9-0.9S9.2,3.2,9.2,3.7v3.7H5.7V3.7c0-0.5-0.4-0.9-0.9-0.9
    S3.9,3.2,3.9,3.7v3.7H1.1v3.1c0,2.5,1.7,5.7,5.2,6.2h0.1c0.4,3.1,2.4,4.5,5.4,4.5c2.9,0,4.9-1.8,5.5-4.8c0.6-3.2,1.7-4.4,4.3-3.7
    c0.5,0.1,1.1-0.2,1.2-0.7s-0.2-1.1-0.7-1.2c-4.1-1-5.9,1.1-6.7,5.3c-0.4,2.1-1.6,3.2-3.5,3.2C10,19.2,8.9,18.6,8.6,16.7z"/>
</svg>
