<?xml version="1.0" encoding="UTF-8" standalone="no"?>
<svg width="20px" height="10px" viewBox="0 0 20 10" version="1.1" xmlns="http://www.w3.org/2000/svg" xmlns:xlink="http://www.w3.org/1999/xlink" xmlns:sketch="http://www.bohemiancoding.com/sketch/ns">
    <!-- Generator: Sketch Beta 3.3.3 (12072) - http://www.bohemiancoding.com/sketch -->
    <title>invite_link</title>
    <desc>Created with Sketch Beta.</desc>
    <defs></defs>
    <g id="Symbols" stroke="none" stroke-width="1" fill="none" fill-rule="evenodd" sketch:type="MSPage">
        <g id="sprite" sketch:type="MSArtboardGroup" transform="translate(-57.000000, -25.000000)" fill="#5191DB">
            <path d="M58.9,30 C58.9,28.29 60.29,26.9 62,26.9 L66,26.9 L66,25 L62,25 C59.24,25 57,27.24 57,30 C57,32.76 59.24,35 62,35 L66,35 L66,33.1 L62,33.1 C60.29,33.1 58.9,31.71 58.9,30 L58.9,30 Z M63,31 L71,31 L71,29 L63,29 L63,31 Z M72,25 L68,25 L68,26.9 L72,26.9 C73.71,26.9 75.1,28.29 75.1,30 C75.1,31.71 73.71,33.1 72,33.1 L68,33.1 L68,35 L72,35 C74.76,35 77,32.76 77,30 C77,27.24 74.76,25 72,25 L72,25 Z" id="invite_link" sketch:type="MSShapeGroup"></path>
        </g>
    </g>
</svg>