<?xml version="1.0" encoding="UTF-8" standalone="no"?>
<svg width="17px" height="12px" viewBox="0 0 17 12" version="1.1" xmlns="http://www.w3.org/2000/svg" xmlns:xlink="http://www.w3.org/1999/xlink" xmlns:sketch="http://www.bohemiancoding.com/sketch/ns">
    <!-- Generator: Sketch Beta 3.3.3 (12072) - http://www.bohemiancoding.com/sketch -->
    <title>invite_button</title>
    <desc>Created with Sketch Beta.</desc>
    <defs></defs>
    <g id="Symbols" stroke="none" stroke-width="1" fill="none" fill-rule="evenodd" sketch:type="MSPage">
        <g id="sprite" sketch:type="MSArtboardGroup" transform="translate(0.000000, -25.000000)" fill="#5191DB">
            <path d="M6.8,29.25 L4.25,29.25 L4.25,26.7 L2.55,26.7 L2.55,29.25 L0,29.25 L0,30.95 L2.55,30.95 L2.55,33.5 L4.25,33.5 L4.25,30.95 L6.8,30.95 L6.8,29.25 L6.8,29.25 Z M11.05,30.1 C12.461,30.1 13.5915,28.961 13.5915,27.55 C13.5915,26.139 12.461,25 11.05,25 C9.639,25 8.5,26.139 8.5,27.55 C8.5,28.961 9.639,30.1 11.05,30.1 L11.05,30.1 Z M11.05,31.8 C9.35,31.8 5.95,32.65 5.95,34.35 L5.95,36.05 L16.15,36.05 L16.15,34.35 C16.15,32.65 12.75,31.8 11.05,31.8 L11.05,31.8 Z" id="invite_button" sketch:type="MSShapeGroup"></path>
        </g>
    </g>
</svg>