<?xml version="1.0" encoding="UTF-8" standalone="no"?>
<svg width="22px" height="15px" viewBox="0 0 22 15" version="1.1" xmlns="http://www.w3.org/2000/svg" xmlns:xlink="http://www.w3.org/1999/xlink" xmlns:sketch="http://www.bohemiancoding.com/sketch/ns">
    <!-- Generator: Sketch Beta 3.3.3 (12072) - http://www.bohemiancoding.com/sketch -->
    <title>invite</title>
    <desc>Created with Sketch Beta.</desc>
    <defs></defs>
    <g id="Symbols" stroke="none" stroke-width="1" fill="none" fill-rule="evenodd" sketch:type="MSPage">
        <g id="sprite" sketch:type="MSArtboardGroup" transform="translate(-75.000000, 0.000000)" fill="#5191DB">
            <path d="M84.2,5.75 L80.75,5.75 L80.75,2.3 L78.45,2.3 L78.45,5.75 L75,5.75 L75,8.05 L78.45,8.05 L78.45,11.5 L80.75,11.5 L80.75,8.05 L84.2,8.05 L84.2,5.75 L84.2,5.75 Z M89.95,6.9 C91.859,6.9 93.3885,5.359 93.3885,3.45 C93.3885,1.541 91.859,0 89.95,0 C88.041,0 86.5,1.541 86.5,3.45 C86.5,5.359 88.041,6.9 89.95,6.9 L89.95,6.9 Z M89.95,9.2 C87.65,9.2 83.05,10.35 83.05,12.65 L83.05,14.95 L96.85,14.95 L96.85,12.65 C96.85,10.35 92.25,9.2 89.95,9.2 L89.95,9.2 Z" id="invite" sketch:type="MSShapeGroup"></path>
        </g>
    </g>
</svg>