<?xml version="1.0" encoding="UTF-8" standalone="no"?>
<svg width="4px" height="16px" viewBox="0 0 4 16" version="1.1" xmlns="http://www.w3.org/2000/svg" xmlns:xlink="http://www.w3.org/1999/xlink" xmlns:sketch="http://www.bohemiancoding.com/sketch/ns">
    <!-- Generator: Sketch Beta 3.3.3 (12072) - http://www.bohemiancoding.com/sketch -->
    <title>more</title>
    <desc>Created with Sketch Beta.</desc>
    <defs></defs>
    <g id="Symbols" stroke="none" stroke-width="1" fill="none" fill-rule="evenodd" sketch:type="MSPage">
        <g id="sprite" sketch:type="MSArtboardGroup" transform="translate(-44.000000, -2.000000)" fill-opacity="0.249999985" fill="#000000">
            <path d="M46,6 C47.1,6 48,5.1 48,4 C48,2.9 47.1,2 46,2 C44.9,2 44,2.9 44,4 C44,5.1 44.9,6 46,6 L46,6 Z M46,8 C44.9,8 44,8.9 44,10 C44,11.1 44.9,12 46,12 C47.1,12 48,11.1 48,10 C48,8.9 47.1,8 46,8 L46,8 Z M46,14 C44.9,14 44,14.9 44,16 C44,17.1 44.9,18 46,18 C47.1,18 48,17.1 48,16 C48,14.9 47.1,14 46,14 L46,14 Z" id="more" sketch:type="MSShapeGroup"></path>
        </g>
    </g>
</svg>