<?xml version="1.0" encoding="UTF-8" standalone="no"?>
<svg width="17px" height="20px" viewBox="0 0 17 20" version="1.1" xmlns="http://www.w3.org/2000/svg" xmlns:xlink="http://www.w3.org/1999/xlink" xmlns:sketch="http://www.bohemiancoding.com/sketch/ns">
    <!-- Generator: Sketch Beta 3.3.3 (12072) - http://www.bohemiancoding.com/sketch -->
    <title>notifications_settings</title>
    <desc>Created with Sketch Beta.</desc>
    <defs></defs>
    <g id="Symbols" stroke="none" stroke-width="1" fill="none" fill-rule="evenodd" sketch:type="MSPage">
        <g id="sprite" sketch:type="MSArtboardGroup" transform="translate(-72.000000, -69.000000)" fill-opacity="0.400000006" fill="#000000">
            <path d="M80.5,89 C81.6,89 82.5,88.1 82.5,87 L78.5,87 C78.5,88.1 79.4,89 80.5,89 L80.5,89 Z M87,83 L87,77.5 C87,74.43 84.87,71.86 82,71.18 L82,70.5 C82,69.67 81.33,69 80.5,69 C79.67,69 79,69.67 79,70.5 L79,71.18 C76.13,71.86 74,74.43 74,77.5 L74,83 L72,85 L72,86 L89,86 L89,85 L87,83 L87,83 Z" id="notifications_settings" sketch:type="MSShapeGroup"></path>
        </g>
    </g>
</svg>