<?xml version="1.0" encoding="UTF-8" standalone="no"?>
<svg width="18px" height="18px" viewBox="0 0 18 18" version="1.1" xmlns="http://www.w3.org/2000/svg" xmlns:xlink="http://www.w3.org/1999/xlink" xmlns:sketch="http://www.bohemiancoding.com/sketch/ns">
    <!-- Generator: Sketch Beta 3.3.3 (12072) - http://www.bohemiancoding.com/sketch -->
    <title>phone</title>
    <desc>Created with Sketch Beta.</desc>
    <defs></defs>
    <g id="Symbols" stroke="none" stroke-width="1" fill="none" fill-rule="evenodd" sketch:type="MSPage">
        <g id="sprite" sketch:type="MSArtboardGroup" transform="translate(-112.000000, -42.000000)" fill="#5DCC30">
            <path d="M115.62,49.79 C117.06,52.62 119.38,54.93 122.21,56.38 L124.41,54.18 C124.68,53.91 125.08,53.82 125.43,53.94 C126.55,54.31 127.76,54.51 129,54.51 C129.55,54.51 130,54.96 130,55.51 L130,59 C130,59.55 129.55,60 129,60 C119.61,60 112,52.39 112,43 C112,42.45 112.45,42 113,42 L116.5,42 C117.05,42 117.5,42.45 117.5,43 C117.5,44.25 117.7,45.45 118.07,46.57 C118.18,46.92 118.1,47.31 117.82,47.59 L115.62,49.79" id="phone" sketch:type="MSShapeGroup"></path>
        </g>
    </g>
</svg>