<?xml version="1.0" encoding="UTF-8" standalone="no"?>
<svg width="14px" height="14px" viewBox="0 0 14 14" version="1.1" xmlns="http://www.w3.org/2000/svg" xmlns:xlink="http://www.w3.org/1999/xlink" xmlns:sketch="http://www.bohemiancoding.com/sketch/ns">
    <!-- Generator: Sketch Beta 3.3.3 (12072) - http://www.bohemiancoding.com/sketch -->
    <title>search</title>
    <desc>Created with Sketch Beta.</desc>
    <defs></defs>
    <g id="Symbols" stroke="none" stroke-width="1" fill="none" fill-rule="evenodd" sketch:type="MSPage">
        <g id="sprite" sketch:type="MSArtboardGroup" fill-opacity="0.249999985" fill="#000000">
            <path d="M9.71410511,8.4607153 C10.3418289,7.58263222 10.71,6.50937734 10.71,5.35500002 C10.71,2.39739232 8.31260772,0 5.35500002,0 C2.39739232,0 0,2.39739232 0,5.35500002 C0,8.31260772 2.39739232,10.71 5.35500002,10.71 C6.53557511,10.71 7.63130394,10.3249285 8.52019481,9.67096812 L12.4333073,13.5840806 L13.6353889,12.3819991 L9.71410511,8.4607153 Z M5.35555551,9.15555546 C3.25288887,9.15555546 1.55555556,7.45822215 1.55555556,5.35555551 C1.55555556,3.25288887 3.25288887,1.55555556 5.35555551,1.55555556 C7.45822215,1.55555556 9.15555546,3.25288887 9.15555546,5.35555551 C9.15555546,7.45822215 7.45822215,9.15555546 5.35555551,9.15555546 L5.35555551,9.15555546 Z" id="search" sketch:type="MSShapeGroup"></path>
        </g>
    </g>
</svg>