<?xml version="1.0" encoding="UTF-8" standalone="no"?>
<svg width="19px" height="20px" viewBox="0 0 19 20" version="1.1" xmlns="http://www.w3.org/2000/svg" xmlns:xlink="http://www.w3.org/1999/xlink" xmlns:sketch="http://www.bohemiancoding.com/sketch/ns">
    <!-- Generator: Sketch Beta 3.3.3 (12072) - http://www.bohemiancoding.com/sketch -->
    <title>settings</title>
    <desc>Created with Sketch Beta.</desc>
    <defs></defs>
    <g id="Symbols" stroke="none" stroke-width="1" fill="none" fill-rule="evenodd" sketch:type="MSPage">
        <g id="sprite" sketch:type="MSArtboardGroup" transform="translate(0.000000, -69.000000)" fill-opacity="0.400000006" fill="#000000">
            <path d="M16.3422206,79.4571429 C16.3803158,79.152381 16.4088872,78.847619 16.4088872,78.5238095 C16.4088872,78.2 16.3803158,77.8952381 16.3422206,77.5904762 L18.3517444,76.0190476 C18.5326968,75.8761905 18.5803158,75.6190476 18.4660301,75.4095238 L16.5612682,72.1142857 C16.4469825,71.9047619 16.1898396,71.8285714 15.9803158,71.9047619 L13.6088872,72.8571429 C13.1136491,72.4761905 12.5803158,72.1619048 11.9993634,71.9238095 L11.6374587,69.4 C11.6088872,69.1714286 11.4088872,69 11.170792,69 L7.36126819,69 C7.12317296,69 6.92317296,69.1714286 6.89460153,69.4 L6.53269677,71.9238095 C5.95174438,72.1619048 5.41841105,72.4857143 4.92317296,72.8571429 L2.55174438,71.9047619 C2.33269677,71.8190476 2.08507772,71.9047619 1.970792,72.1142857 L0.066030099,75.4095238 C-0.0577794248,75.6190476 -0.000636567684,75.8761905 0.180315813,76.0190476 L2.18983962,77.5904762 C2.15174438,77.8952381 2.12317296,78.2095238 2.12317296,78.5238095 C2.12317296,78.8380952 2.15174438,79.152381 2.18983962,79.4571429 L0.180315813,81.0285714 C-0.000636567684,81.1714286 -0.0482556153,81.4285714 0.066030099,81.6380952 L1.970792,84.9333333 C2.08507772,85.1428571 2.34222058,85.2190476 2.55174438,85.1428571 L4.92317296,84.1904762 C5.41841105,84.5714286 5.95174438,84.8857143 6.53269677,85.1238095 L6.89460153,87.647619 C6.92317296,87.8761905 7.12317296,88.047619 7.36126819,88.047619 L11.170792,88.047619 C11.4088872,88.047619 11.6088872,87.8761905 11.6374587,87.647619 L11.9993634,85.1238095 C12.5803158,84.8857143 13.1136491,84.5619048 13.6088872,84.1904762 L15.9803158,85.1428571 C16.1993634,85.2285714 16.4469825,85.1428571 16.5612682,84.9333333 L18.4660301,81.6380952 C18.5803158,81.4285714 18.5326968,81.1714286 18.3517444,81.0285714 L16.3422206,79.4571429 L16.3422206,79.4571429 Z M9.2660301,81.8571429 C7.42793486,81.8571429 5.93269677,80.3619048 5.93269677,78.5238095 C5.93269677,76.6857143 7.42793486,75.1904762 9.2660301,75.1904762 C11.1041253,75.1904762 12.5993634,76.6857143 12.5993634,78.5238095 C12.5993634,80.3619048 11.1041253,81.8571429 9.2660301,81.8571429 L9.2660301,81.8571429 Z" id="settings" sketch:type="MSShapeGroup"></path>
        </g>
    </g>
</svg>