<?xml version="1.0" encoding="UTF-8" standalone="no"?>
<svg width="12px" height="22px" viewBox="0 0 12 22" version="1.1" xmlns="http://www.w3.org/2000/svg" xmlns:xlink="http://www.w3.org/1999/xlink" xmlns:sketch="http://www.bohemiancoding.com/sketch/ns">
    <!-- Generator: Sketch Beta 3.3.3 (12072) - http://www.bohemiancoding.com/sketch -->
    <title>shared</title>
    <desc>Created with Sketch Beta.</desc>
    <defs></defs>
    <g id="Symbols" stroke="none" stroke-width="1" fill="none" fill-rule="evenodd" sketch:type="MSPage">
        <g id="sprite" sketch:type="MSArtboardGroup" transform="translate(0.000000, -42.000000)" fill="#B5B5B5">
            <path d="M10.3636364,58.5 C10.3636364,60.71 8.41090909,62.5 6,62.5 C3.58909091,62.5 1.63636364,60.71 1.63636364,58.5 L1.63636364,46 C1.63636364,44.62 2.85818182,43.5 4.36363636,43.5 C5.86909091,43.5 7.09090909,44.62 7.09090909,46 L7.09090909,56.5 C7.09090909,57.05 6.6,57.5 6,57.5 C5.4,57.5 4.90909091,57.05 4.90909091,56.5 L4.90909091,47 L3.27272727,47 L3.27272727,56.5 C3.27272727,57.88 4.49454545,59 6,59 C7.50545455,59 8.72727273,57.88 8.72727273,56.5 L8.72727273,46 C8.72727273,43.79 6.77454545,42 4.36363636,42 C1.95272727,42 0,43.79 0,46 L0,58.5 C0,61.54 2.68363636,64 6,64 C9.31636364,64 12,61.54 12,58.5 L12,47 L10.3636364,47" id="shared" sketch:type="MSShapeGroup"></path>
        </g>
    </g>
</svg>