<?xml version="1.0" encoding="utf-8"?>
<svg version="1.1" xmlns="http://www.w3.org/2000/svg"
     viewBox="0 0 300 300">
  <title>star</title>
  <path
    d="M268.39618,134.178378 C279.216959,125.049298 276.445722,116.660231 262.239005,115.527351 L188.440106,109.664825 L178.47195,86.1283609 L178.46941,86.1258208 L159.969095,42.4439105 C154.48589,29.4970769 145.518529,29.4970769 140.030243,42.4405237 L111.559232,109.664825 L37.7637205,115.527351 C23.5544627,116.660231 20.7823789,125.049298 31.6040047,134.178378 L49.8655511,149.580631 L87.8043202,181.583212 L81.8029367,206.385487 L81.8029367,206.393108 L70.6654931,252.428834 C67.3650708,266.071652 74.6237985,271.258513 86.7959049,263.954911 L107.333371,251.632939 L150.000939,226.030536 L192.668507,251.632939 L213.20174,263.954911 C225.373,271.258513 232.635114,266.069112 229.334692,252.428834 L225.58044,236.91397 L218.197248,206.393108 L218.197248,206.388027 L212.198405,181.583212 L231.873088,164.985424 L231.875628,164.982883 L268.39618,134.178378 L268.39618,134.178378 Z"/>
</svg>
