<?xml version="1.0" encoding="utf-8"?>
<svg version="1.1" xmlns="http://www.w3.org/2000/svg"
     xmlns:xlink="http://www.w3.org/1999/xlink"
     viewBox="0 0 24 24">
  <title>twitter</title>
  <path d="M21.9,5.9c-0.7,0.3-1.5,0.5-2.3,0.6C20.4,6,21,5.2,21.3,4.3c-0.8,0.5-1.6,0.8-2.6,1C18,4.5,17,4,15.8,4
  	c-2.2,0-4.1,1.8-4.1,4c0,0.3,0,0.6,0.1,0.9C8.5,8.8,5.5,7.2,3.5,4.7C3.2,5.3,3,6,3,6.8c0,1.4,0.7,2.6,1.8,3.4
  	c-0.7,0-1.3-0.2-1.8-0.5c0,0,0,0,0,0.1c0,2,1.4,3.6,3.2,4c-0.3,0.1-0.7,0.1-1.1,0.1c-0.3,0-0.5,0-0.8-0.1c0.5,1.6,2,2.8,3.8,2.8
  	c-1.4,1.1-3.1,1.7-5,1.7c-0.3,0-0.6,0-1-0.1C3.9,19.4,6.1,20,8.3,20c7.4,0,11.5-6.2,11.5-11.5c0-0.2,0-0.4,0-0.5
  	C20.6,7.4,21.3,6.7,21.9,5.9z"/>
</svg>
