<?xml version="1.0" encoding="UTF-8" standalone="no"?>
<svg width="20px" height="21px" viewBox="0 0 20 21" version="1.1" xmlns="http://www.w3.org/2000/svg" xmlns:xlink="http://www.w3.org/1999/xlink" xmlns:sketch="http://www.bohemiancoding.com/sketch/ns">
    <!-- Generator: Sketch Beta 3.3.3 (12072) - http://www.bohemiancoding.com/sketch -->
    <title>username</title>
    <desc>Created with Sketch Beta.</desc>
    <defs></defs>
    <g id="Symbols" stroke="none" stroke-width="1" fill="none" fill-rule="evenodd" sketch:type="MSPage">
        <g id="sprite" sketch:type="MSArtboardGroup" transform="translate(-85.000000, -42.000000)" stroke="#FF556A" stroke-width="0.3" fill="#FF556A">
            <path d="M95.1076569,49.4478987 C96.6735751,49.4478987 97.6753022,50.691422 97.6753022,52.6603339 C97.6753022,54.6292458 96.662061,55.8842832 95.0846287,55.8842832 C93.5762809,55.8842832 92.6551526,54.6637881 92.6551526,52.6603339 C92.6551526,50.6453656 93.5647668,49.4478987 95.1076569,49.4478987 L95.1076569,49.4478987 Z M95.5106505,43 C89.8687392,43 86,46.9032815 86,52.6027634 C86,58.4864709 89.7651123,62.2170409 95.7063903,62.2170409 C97.1571675,62.2170409 98.5503742,62.009787 99.5866436,61.6528497 L99.5866436,60.2020725 C98.861255,60.5359816 97.3068509,60.7547496 95.7294185,60.7547496 C90.8013817,60.7547496 87.6234888,57.5883708 87.6234888,52.671848 C87.6234888,47.8819804 90.8589522,44.4507772 95.3609672,44.4507772 C99.9666091,44.4507772 103.121474,47.2947611 103.121474,51.4513529 C103.121474,54.2838227 102.188831,56.1145653 100.738054,56.1145653 C99.9090386,56.1145653 99.4369603,55.642487 99.4369603,54.8364997 L99.4369603,48.0777202 L97.6983305,48.0777202 L97.6983305,49.482441 L97.5141048,49.482441 C97.0650547,48.4807139 96.0287853,47.8589522 94.8198043,47.8589522 C92.4594128,47.8589522 90.8128958,49.81635 90.8128958,52.6142775 C90.8128958,55.5388601 92.4248705,57.507772 94.8198043,57.507772 C96.1669545,57.507772 97.2032239,56.851468 97.6983305,55.6770294 L97.8825561,55.6770294 C98.0207254,56.8054116 99.0685089,57.611399 100.415659,57.611399 C103.063903,57.611399 104.744963,55.2279793 104.744963,51.4743811 C104.744963,46.4772596 100.956822,43 95.5106505,43 L95.5106505,43 Z" id="username" sketch:type="MSShapeGroup"></path>
        </g>
    </g>
</svg>