<?xml version="1.0" encoding="utf-8"?>
<svg version="1.1" xmlns="http://www.w3.org/2000/svg"
     xmlns:xlink="http://www.w3.org/1999/xlink"
     viewBox="0 0 24 24">
  <title>username</title>
  <path d="M11.7,8.8c1.6,0,2.6,1.2,2.6,3.2s-1,3.2-2.6,3.2c-1.5,0-2.4-1.2-2.4-3.2C9.3,10,10.2,8.8,11.7,8.8L11.7,8.8z M12.1,2.4
	c-5.6,0-9.5,3.9-9.5,9.6c0,5.9,3.8,9.6,9.7,9.6c1.5,0,2.8-0.2,3.9-0.6v-1.5c-0.7,0.3-2.3,0.6-3.9,0.6c-4.9,0-8.1-3.2-8.1-8.1
	c0-4.8,3.2-8.2,7.7-8.2c4.6,0,7.8,2.8,7.8,7c0,2.8-0.9,4.7-2.4,4.7c-0.8,0-1.3-0.5-1.3-1.3V7.4h-1.7v1.4h-0.2
	c-0.4-1-1.5-1.6-2.7-1.6c-2.4,0-4,2-4,4.8c0,2.9,1.6,4.9,4,4.9c1.3,0,2.4-0.7,2.9-1.8h0.2c0.1,1.1,1.2,1.9,2.5,1.9
	c2.6,0,4.3-2.4,4.3-6.1C21.4,5.9,17.6,2.4,12.1,2.4L12.1,2.4z"/>
</svg>
