<svg xmlns="http://www.w3.org/2000/svg" xmlns:xlink="http://www.w3.org/1999/xlink" preserveAspectRatio="xMidYMid" width="134" height="38" viewBox="0 0 134 38">
  <defs>
    <style>

      .cls-3 {
        fill: #2d6fb8;
      }

      .cls-4 {
        fill: #ffffff;
      }
    </style>
  </defs>
  <g id="actor-badge">
    <path d="M5.000,0.000 C5.000,0.000 129.000,0.000 129.000,0.000 C131.761,0.000 134.000,2.239 134.000,5.000 C134.000,5.000 134.000,33.500 134.000,33.500 C134.000,36.261 131.761,38.500 129.000,38.500 C129.000,38.500 5.000,38.500 5.000,38.500 C2.239,38.500 0.000,36.261 0.000,33.500 C0.000,33.500 0.000,5.000 0.000,5.000 C0.000,2.239 2.239,0.000 5.000,0.000 Z" id="path-1" class="cls-3" fill-rule="evenodd"/>
    <path d="M36.760,16.178 C37.972,15.127 37.661,14.161 36.070,14.031 C36.070,14.031 27.804,13.356 27.804,13.356 C27.804,13.356 26.688,10.646 26.688,10.646 C26.688,10.646 26.688,10.646 26.688,10.646 C26.688,10.646 24.616,5.617 24.616,5.617 C24.001,4.126 22.997,4.126 22.382,5.616 C22.382,5.616 19.194,13.356 19.194,13.356 C19.194,13.356 10.928,14.031 10.928,14.031 C9.337,14.161 9.026,15.127 10.238,16.178 C10.238,16.178 12.284,17.951 12.284,17.951 C12.284,17.951 16.533,21.636 16.533,21.636 C16.533,21.636 15.861,24.491 15.861,24.491 C15.861,24.491 15.861,24.492 15.861,24.492 C15.861,24.492 14.613,29.792 14.613,29.792 C14.244,31.363 15.057,31.960 16.420,31.119 C16.420,31.119 18.720,29.700 18.720,29.700 C18.720,29.700 23.499,26.753 23.499,26.753 C23.499,26.753 28.278,29.700 28.278,29.700 C28.278,29.700 30.578,31.119 30.578,31.119 C31.941,31.960 32.754,31.362 32.385,29.792 C32.385,29.792 31.964,28.006 31.964,28.006 C31.964,28.006 31.137,24.492 31.137,24.492 C31.137,24.492 31.137,24.491 31.137,24.491 C31.137,24.491 30.465,21.636 30.465,21.636 C30.465,21.636 32.669,19.725 32.669,19.725 C32.669,19.725 32.669,19.725 32.669,19.725 C32.669,19.725 36.760,16.178 36.760,16.178 Z" id="path-2" class="cls-4" fill-rule="evenodd"/>
    <path d="M117.401,10.866 C117.416,11.051 117.455,11.221 117.518,11.376 C117.581,11.531 117.666,11.665 117.775,11.778 C117.883,11.891 118.011,11.980 118.159,12.044 C118.307,12.108 118.475,12.141 118.662,12.141 C118.926,12.141 119.155,12.088 119.350,11.982 C119.545,11.877 119.714,11.732 119.858,11.547 C119.858,11.547 120.433,12.097 120.433,12.097 C120.357,12.211 120.263,12.322 120.150,12.429 C120.037,12.535 119.905,12.631 119.754,12.714 C119.604,12.798 119.433,12.865 119.243,12.916 C119.052,12.968 118.838,12.993 118.601,12.993 C118.249,12.993 117.933,12.935 117.652,12.817 C117.370,12.700 117.132,12.539 116.935,12.334 C116.739,12.129 116.588,11.886 116.483,11.605 C116.377,11.323 116.325,11.020 116.325,10.695 C116.325,10.695 116.325,10.519 116.325,10.519 C116.325,10.144 116.380,9.805 116.492,9.502 C116.603,9.199 116.755,8.941 116.949,8.728 C117.142,8.516 117.370,8.352 117.632,8.236 C117.894,8.120 118.176,8.063 118.478,8.063 C118.824,8.063 119.124,8.120 119.379,8.236 C119.634,8.352 119.845,8.514 120.012,8.722 C120.179,8.930 120.303,9.177 120.385,9.464 C120.467,9.752 120.508,10.066 120.508,10.409 C120.508,10.409 120.508,10.866 120.508,10.866 C120.508,10.866 117.401,10.866 117.401,10.866 ZM119.453,10.005 C119.445,9.864 119.422,9.729 119.385,9.598 C119.349,9.468 119.292,9.352 119.216,9.251 C119.140,9.150 119.041,9.070 118.920,9.010 C118.798,8.950 118.649,8.919 118.473,8.919 C118.180,8.919 117.944,9.022 117.764,9.227 C117.584,9.432 117.469,9.718 117.419,10.084 C117.419,10.084 119.453,10.084 119.453,10.084 C119.453,10.084 119.453,10.005 119.453,10.005 ZM114.360,9.838 C114.360,9.510 114.289,9.278 114.147,9.141 C114.005,9.005 113.796,8.937 113.521,8.937 C113.298,8.937 113.107,8.988 112.947,9.091 C112.788,9.193 112.660,9.333 112.563,9.508 C112.563,9.508 112.563,12.905 112.563,12.905 C112.563,12.905 111.495,12.905 111.495,12.905 C111.495,12.905 111.495,6.155 111.495,6.155 C111.495,6.155 112.563,6.155 112.563,6.155 C112.563,6.155 112.563,8.669 112.563,8.669 C112.727,8.479 112.920,8.330 113.143,8.223 C113.366,8.116 113.613,8.063 113.886,8.063 C114.117,8.063 114.328,8.095 114.518,8.159 C114.709,8.224 114.871,8.327 115.006,8.469 C115.141,8.611 115.245,8.796 115.318,9.023 C115.391,9.250 115.428,9.524 115.428,9.847 C115.428,9.847 115.428,12.905 115.428,12.905 C115.428,12.905 114.360,12.905 114.360,12.905 C114.360,12.905 114.360,9.838 114.360,9.838 ZM110.018,12.993 C109.843,12.993 109.679,12.970 109.528,12.923 C109.377,12.876 109.247,12.800 109.137,12.694 C109.027,12.589 108.942,12.451 108.880,12.281 C108.819,12.111 108.788,11.903 108.788,11.657 C108.788,11.657 108.788,8.941 108.788,8.941 C108.788,8.941 108.006,8.941 108.006,8.941 C108.006,8.941 108.006,8.150 108.006,8.150 C108.006,8.150 108.788,8.150 108.788,8.150 C108.788,8.150 108.788,6.995 108.788,6.995 C108.788,6.995 109.856,6.995 109.856,6.995 C109.856,6.995 109.856,8.150 109.856,8.150 C109.856,8.150 110.695,8.150 110.695,8.150 C110.695,8.150 110.695,8.941 110.695,8.941 C110.695,8.941 109.856,8.941 109.856,8.941 C109.856,8.941 109.856,11.596 109.856,11.596 C109.856,11.704 109.867,11.792 109.891,11.859 C109.914,11.927 109.948,11.979 109.992,12.015 C110.036,12.052 110.088,12.077 110.148,12.090 C110.208,12.103 110.275,12.110 110.348,12.110 C110.421,12.110 110.492,12.105 110.561,12.095 C110.630,12.084 110.683,12.075 110.722,12.066 C110.722,12.066 110.722,12.892 110.722,12.892 C110.637,12.916 110.538,12.938 110.425,12.960 C110.312,12.982 110.177,12.993 110.018,12.993 ZM104.121,9.825 C104.121,9.661 104.103,9.522 104.066,9.409 C104.029,9.297 103.976,9.205 103.906,9.135 C103.835,9.064 103.748,9.014 103.644,8.983 C103.540,8.952 103.421,8.937 103.286,8.937 C103.066,8.937 102.875,8.990 102.712,9.095 C102.550,9.201 102.420,9.343 102.324,9.522 C102.324,9.522 102.324,12.905 102.324,12.905 C102.324,12.905 101.256,12.905 101.256,12.905 C101.256,12.905 101.256,8.150 101.256,8.150 C101.256,8.150 102.262,8.150 102.262,8.150 C102.262,8.150 102.293,8.700 102.293,8.700 C102.460,8.498 102.660,8.341 102.895,8.230 C103.129,8.118 103.390,8.063 103.677,8.063 C103.906,8.063 104.113,8.094 104.299,8.157 C104.485,8.220 104.644,8.322 104.776,8.462 C104.908,8.603 105.009,8.786 105.081,9.012 C105.153,9.237 105.189,9.511 105.189,9.834 C105.189,9.834 105.189,12.905 105.189,12.905 C105.189,12.905 104.121,12.905 104.121,12.905 C104.121,12.905 104.121,9.825 104.121,9.825 ZM99.786,12.305 C99.597,12.521 99.365,12.689 99.091,12.811 C98.817,12.932 98.508,12.993 98.162,12.993 C97.813,12.993 97.502,12.932 97.228,12.811 C96.954,12.689 96.723,12.521 96.534,12.305 C96.345,12.090 96.200,11.835 96.099,11.539 C95.998,11.243 95.947,10.922 95.947,10.576 C95.947,10.576 95.947,10.484 95.947,10.484 C95.947,10.138 95.998,9.818 96.099,9.524 C96.200,9.229 96.345,8.974 96.534,8.757 C96.723,8.540 96.953,8.370 97.226,8.247 C97.498,8.124 97.807,8.063 98.153,8.063 C98.502,8.063 98.814,8.124 99.089,8.247 C99.365,8.370 99.597,8.540 99.786,8.757 C99.975,8.974 100.119,9.229 100.219,9.524 C100.318,9.818 100.368,10.138 100.368,10.484 C100.368,10.484 100.368,10.576 100.368,10.576 C100.368,10.922 100.318,11.243 100.219,11.539 C100.119,11.835 99.975,12.090 99.786,12.305 ZM99.305,10.484 C99.305,10.273 99.282,10.073 99.236,9.884 C99.191,9.695 99.121,9.530 99.028,9.387 C98.934,9.245 98.815,9.132 98.670,9.047 C98.525,8.962 98.352,8.919 98.153,8.919 C97.954,8.919 97.783,8.962 97.641,9.047 C97.499,9.132 97.381,9.245 97.287,9.387 C97.194,9.530 97.125,9.695 97.081,9.884 C97.037,10.073 97.015,10.273 97.015,10.484 C97.015,10.484 97.015,10.576 97.015,10.576 C97.015,10.790 97.037,10.992 97.081,11.183 C97.125,11.373 97.194,11.539 97.287,11.681 C97.381,11.824 97.501,11.936 97.646,12.018 C97.791,12.100 97.963,12.141 98.162,12.141 C98.358,12.141 98.529,12.100 98.674,12.018 C98.819,11.936 98.938,11.824 99.030,11.681 C99.122,11.539 99.191,11.373 99.236,11.183 C99.282,10.992 99.305,10.790 99.305,10.576 C99.305,10.576 99.305,10.484 99.305,10.484 ZM92.526,12.305 C92.369,12.521 92.176,12.689 91.946,12.811 C91.716,12.932 91.453,12.993 91.157,12.993 C90.885,12.993 90.646,12.949 90.441,12.861 C90.236,12.773 90.057,12.646 89.905,12.479 C89.905,12.479 89.905,14.733 89.905,14.733 C89.905,14.733 88.837,14.733 88.837,14.733 C88.837,14.733 88.837,8.150 88.837,8.150 C88.837,8.150 89.821,8.150 89.821,8.150 C89.821,8.150 89.865,8.634 89.865,8.634 C90.017,8.449 90.198,8.308 90.408,8.210 C90.617,8.112 90.863,8.063 91.144,8.063 C91.446,8.063 91.712,8.121 91.944,8.238 C92.175,8.356 92.369,8.520 92.526,8.733 C92.683,8.945 92.801,9.200 92.882,9.497 C92.962,9.795 93.003,10.124 93.003,10.484 C93.003,10.484 93.003,10.576 93.003,10.576 C93.003,10.922 92.962,11.243 92.882,11.539 C92.801,11.835 92.683,12.090 92.526,12.305 ZM91.939,10.484 C91.939,10.270 91.918,10.069 91.876,9.882 C91.833,9.694 91.768,9.530 91.680,9.390 C91.592,9.249 91.479,9.139 91.342,9.058 C91.204,8.977 91.038,8.937 90.845,8.937 C90.611,8.937 90.417,8.985 90.265,9.082 C90.113,9.179 89.993,9.311 89.905,9.478 C89.905,9.478 89.905,11.587 89.905,11.587 C89.993,11.754 90.112,11.888 90.263,11.989 C90.414,12.090 90.611,12.141 90.854,12.141 C91.047,12.141 91.212,12.099 91.348,12.015 C91.484,11.932 91.597,11.819 91.684,11.677 C91.772,11.535 91.837,11.369 91.878,11.178 C91.919,10.988 91.939,10.787 91.939,10.576 C91.939,10.576 91.939,10.484 91.939,10.484 ZM86.719,12.439 C86.569,12.615 86.385,12.752 86.165,12.848 C85.945,12.945 85.684,12.993 85.383,12.993 C85.148,12.993 84.935,12.960 84.743,12.894 C84.551,12.828 84.387,12.724 84.249,12.582 C84.111,12.440 84.004,12.257 83.928,12.033 C83.852,11.809 83.814,11.540 83.814,11.227 C83.814,11.227 83.814,8.150 83.814,8.150 C83.814,8.150 84.882,8.150 84.882,8.150 C84.882,8.150 84.882,11.235 84.882,11.235 C84.882,11.408 84.902,11.551 84.943,11.664 C84.984,11.777 85.039,11.868 85.108,11.936 C85.177,12.005 85.257,12.054 85.348,12.081 C85.438,12.109 85.534,12.123 85.633,12.123 C85.908,12.123 86.131,12.073 86.301,11.974 C86.471,11.874 86.598,11.738 86.683,11.565 C86.683,11.565 86.683,8.150 86.683,8.150 C86.683,8.150 87.751,8.150 87.751,8.150 C87.751,8.150 87.751,12.905 87.751,12.905 C87.751,12.905 86.745,12.905 86.745,12.905 C86.745,12.905 86.719,12.439 86.719,12.439 ZM82.353,12.305 C82.164,12.521 81.932,12.689 81.658,12.811 C81.384,12.932 81.075,12.993 80.729,12.993 C80.380,12.993 80.069,12.932 79.795,12.811 C79.521,12.689 79.290,12.521 79.101,12.305 C78.912,12.090 78.767,11.835 78.666,11.539 C78.565,11.243 78.514,10.922 78.514,10.576 C78.514,10.576 78.514,10.484 78.514,10.484 C78.514,10.138 78.565,9.818 78.666,9.524 C78.767,9.229 78.912,8.974 79.101,8.757 C79.290,8.540 79.520,8.370 79.793,8.247 C80.065,8.124 80.374,8.063 80.720,8.063 C81.069,8.063 81.381,8.124 81.656,8.247 C81.931,8.370 82.164,8.540 82.353,8.757 C82.542,8.974 82.686,9.229 82.785,9.524 C82.885,9.818 82.935,10.138 82.935,10.484 C82.935,10.484 82.935,10.576 82.935,10.576 C82.935,10.922 82.885,11.243 82.785,11.539 C82.686,11.835 82.542,12.090 82.353,12.305 ZM81.871,10.484 C81.871,10.273 81.849,10.073 81.803,9.884 C81.758,9.695 81.688,9.530 81.595,9.387 C81.501,9.245 81.381,9.132 81.236,9.047 C81.091,8.962 80.919,8.919 80.720,8.919 C80.521,8.919 80.350,8.962 80.208,9.047 C80.066,9.132 79.948,9.245 79.854,9.387 C79.761,9.530 79.692,9.695 79.648,9.884 C79.604,10.073 79.582,10.273 79.582,10.484 C79.582,10.484 79.582,10.576 79.582,10.576 C79.582,10.790 79.604,10.992 79.648,11.183 C79.692,11.373 79.761,11.539 79.854,11.681 C79.948,11.824 80.067,11.936 80.213,12.018 C80.358,12.100 80.530,12.141 80.729,12.141 C80.925,12.141 81.096,12.100 81.241,12.018 C81.386,11.936 81.504,11.824 81.597,11.681 C81.689,11.539 81.758,11.373 81.803,11.183 C81.849,10.992 81.871,10.790 81.871,10.576 C81.871,10.576 81.871,10.484 81.871,10.484 ZM77.984,9.100 C77.913,9.094 77.839,9.091 77.763,9.091 C77.505,9.091 77.295,9.141 77.134,9.240 C76.973,9.340 76.853,9.478 76.774,9.653 C76.774,9.653 76.774,12.905 76.774,12.905 C76.774,12.905 75.706,12.905 75.706,12.905 C75.706,12.905 75.706,8.150 75.706,8.150 C75.706,8.150 76.725,8.150 76.725,8.150 C76.725,8.150 76.752,8.682 76.752,8.682 C76.872,8.489 77.021,8.337 77.198,8.227 C77.375,8.117 77.584,8.063 77.824,8.063 C77.886,8.063 77.955,8.069 78.033,8.082 C78.110,8.096 78.167,8.109 78.202,8.124 C78.202,8.124 78.198,9.126 78.198,9.126 C78.127,9.114 78.056,9.106 77.984,9.100 ZM74.012,14.254 C73.823,14.424 73.596,14.554 73.331,14.643 C73.065,14.733 72.775,14.777 72.458,14.777 C72.327,14.777 72.180,14.763 72.019,14.736 C71.858,14.708 71.695,14.662 71.531,14.599 C71.367,14.536 71.210,14.455 71.061,14.356 C70.911,14.256 70.784,14.134 70.679,13.991 C70.679,13.991 71.184,13.349 71.184,13.349 C71.360,13.557 71.551,13.707 71.757,13.797 C71.964,13.888 72.177,13.934 72.397,13.934 C72.751,13.934 73.031,13.838 73.236,13.646 C73.441,13.454 73.544,13.172 73.544,12.800 C73.544,12.800 73.544,12.479 73.544,12.479 C73.394,12.646 73.219,12.773 73.016,12.861 C72.814,12.949 72.580,12.993 72.313,12.993 C72.023,12.993 71.762,12.932 71.529,12.811 C71.296,12.689 71.097,12.522 70.931,12.308 C70.766,12.094 70.639,11.840 70.551,11.545 C70.463,11.251 70.419,10.931 70.419,10.585 C70.419,10.585 70.419,10.493 70.419,10.493 C70.419,10.132 70.463,9.803 70.551,9.504 C70.639,9.205 70.766,8.949 70.931,8.735 C71.097,8.521 71.297,8.356 71.531,8.238 C71.765,8.121 72.029,8.063 72.322,8.063 C72.609,8.063 72.857,8.112 73.065,8.210 C73.273,8.308 73.452,8.448 73.601,8.629 C73.601,8.629 73.649,8.150 73.649,8.150 C73.649,8.150 74.612,8.150 74.612,8.150 C74.612,8.150 74.612,12.773 74.612,12.773 C74.612,13.093 74.559,13.377 74.453,13.626 C74.348,13.875 74.201,14.084 74.012,14.254 ZM73.544,9.478 C73.450,9.311 73.326,9.179 73.172,9.082 C73.019,8.985 72.826,8.937 72.595,8.937 C72.401,8.937 72.234,8.978 72.094,9.060 C71.953,9.142 71.838,9.253 71.749,9.394 C71.659,9.535 71.593,9.700 71.549,9.888 C71.505,10.077 71.483,10.279 71.483,10.493 C71.483,10.493 71.483,10.585 71.483,10.585 C71.483,10.796 71.504,10.994 71.546,11.180 C71.589,11.367 71.656,11.530 71.746,11.670 C71.837,11.811 71.951,11.922 72.089,12.002 C72.227,12.083 72.392,12.123 72.586,12.123 C72.826,12.123 73.022,12.073 73.175,11.971 C73.327,11.870 73.450,11.736 73.544,11.569 C73.544,11.569 73.544,9.478 73.544,9.478 ZM66.209,9.825 C66.209,9.661 66.191,9.522 66.154,9.409 C66.118,9.297 66.064,9.205 65.994,9.135 C65.924,9.064 65.836,9.014 65.733,8.983 C65.628,8.952 65.509,8.937 65.374,8.937 C65.155,8.937 64.963,8.990 64.801,9.095 C64.638,9.201 64.509,9.343 64.412,9.522 C64.412,9.522 64.412,12.905 64.412,12.905 C64.412,12.905 63.344,12.905 63.344,12.905 C63.344,12.905 63.344,8.150 63.344,8.150 C63.344,8.150 64.350,8.150 64.350,8.150 C64.350,8.150 64.381,8.700 64.381,8.700 C64.548,8.498 64.749,8.341 64.983,8.230 C65.218,8.118 65.478,8.063 65.765,8.063 C65.994,8.063 66.201,8.094 66.387,8.157 C66.573,8.220 66.732,8.322 66.864,8.462 C66.996,8.603 67.098,8.786 67.170,9.012 C67.241,9.237 67.277,9.511 67.277,9.834 C67.277,9.834 67.277,12.905 67.277,12.905 C67.277,12.905 66.209,12.905 66.209,12.905 C66.209,12.905 66.209,9.825 66.209,9.825 ZM59.541,11.376 C59.604,11.531 59.689,11.665 59.798,11.778 C59.906,11.891 60.034,11.980 60.182,12.044 C60.330,12.108 60.498,12.141 60.685,12.141 C60.949,12.141 61.178,12.088 61.373,11.982 C61.568,11.877 61.737,11.732 61.881,11.547 C61.881,11.547 62.456,12.097 62.456,12.097 C62.380,12.211 62.286,12.322 62.173,12.429 C62.060,12.535 61.928,12.631 61.777,12.714 C61.627,12.798 61.456,12.865 61.265,12.916 C61.075,12.968 60.861,12.993 60.624,12.993 C60.272,12.993 59.956,12.935 59.675,12.817 C59.393,12.700 59.155,12.539 58.958,12.334 C58.762,12.129 58.611,11.886 58.506,11.605 C58.400,11.323 58.348,11.020 58.348,10.695 C58.348,10.695 58.348,10.519 58.348,10.519 C58.348,10.144 58.403,9.805 58.515,9.502 C58.626,9.199 58.778,8.941 58.972,8.728 C59.165,8.516 59.393,8.352 59.655,8.236 C59.917,8.120 60.199,8.063 60.501,8.063 C60.846,8.063 61.147,8.120 61.402,8.236 C61.657,8.352 61.868,8.514 62.035,8.722 C62.202,8.930 62.326,9.177 62.408,9.464 C62.490,9.752 62.531,10.066 62.531,10.409 C62.531,10.409 62.531,10.866 62.531,10.866 C62.531,10.866 59.424,10.866 59.424,10.866 C59.439,11.051 59.478,11.221 59.541,11.376 ZM61.476,10.084 C61.476,10.084 61.476,10.005 61.476,10.005 C61.468,9.864 61.445,9.729 61.408,9.598 C61.372,9.468 61.315,9.352 61.239,9.251 C61.163,9.150 61.064,9.070 60.942,9.010 C60.821,8.950 60.672,8.919 60.496,8.919 C60.203,8.919 59.967,9.022 59.787,9.227 C59.607,9.432 59.492,9.718 59.442,10.084 C59.442,10.084 61.476,10.084 61.476,10.084 ZM57.150,12.305 C56.993,12.521 56.800,12.689 56.570,12.811 C56.340,12.932 56.077,12.993 55.781,12.993 C55.509,12.993 55.270,12.949 55.065,12.861 C54.860,12.773 54.681,12.646 54.529,12.479 C54.529,12.479 54.529,14.733 54.529,14.733 C54.529,14.733 53.461,14.733 53.461,14.733 C53.461,14.733 53.461,8.150 53.461,8.150 C53.461,8.150 54.445,8.150 54.445,8.150 C54.445,8.150 54.489,8.634 54.489,8.634 C54.641,8.449 54.822,8.308 55.032,8.210 C55.241,8.112 55.487,8.063 55.768,8.063 C56.070,8.063 56.336,8.121 56.568,8.238 C56.799,8.356 56.993,8.520 57.150,8.733 C57.307,8.945 57.425,9.200 57.506,9.497 C57.587,9.795 57.627,10.124 57.627,10.484 C57.627,10.484 57.627,10.576 57.627,10.576 C57.627,10.922 57.587,11.243 57.506,11.539 C57.425,11.835 57.307,12.090 57.150,12.305 ZM56.563,10.484 C56.563,10.270 56.542,10.069 56.500,9.882 C56.457,9.694 56.392,9.530 56.304,9.390 C56.216,9.249 56.103,9.139 55.966,9.058 C55.828,8.977 55.662,8.937 55.469,8.937 C55.235,8.937 55.041,8.985 54.889,9.082 C54.737,9.179 54.617,9.311 54.529,9.478 C54.529,9.478 54.529,11.587 54.529,11.587 C54.617,11.754 54.736,11.888 54.887,11.989 C55.038,12.090 55.235,12.141 55.478,12.141 C55.671,12.141 55.836,12.099 55.972,12.015 C56.108,11.932 56.221,11.819 56.308,11.677 C56.396,11.535 56.461,11.369 56.502,11.178 C56.543,10.988 56.563,10.787 56.563,10.576 C56.563,10.576 56.563,10.484 56.563,10.484 ZM51.729,12.160 C51.498,12.429 51.220,12.634 50.894,12.778 C50.569,12.921 50.209,12.993 49.813,12.993 C49.421,12.993 49.062,12.921 48.737,12.778 C48.411,12.634 48.131,12.429 47.895,12.160 C47.659,11.892 47.476,11.566 47.346,11.180 C47.215,10.795 47.150,10.359 47.150,9.873 C47.150,9.873 47.150,9.548 47.150,9.548 C47.150,9.062 47.215,8.625 47.346,8.238 C47.476,7.852 47.658,7.524 47.891,7.254 C48.124,6.984 48.403,6.778 48.728,6.634 C49.053,6.491 49.412,6.419 49.805,6.419 C50.200,6.419 50.561,6.491 50.888,6.634 C51.214,6.778 51.494,6.984 51.727,7.254 C51.960,7.524 52.140,7.852 52.268,8.238 C52.395,8.625 52.459,9.062 52.459,9.548 C52.459,9.548 52.459,9.873 52.459,9.873 C52.459,10.359 52.395,10.795 52.268,11.180 C52.140,11.566 51.961,11.892 51.729,12.160 ZM51.347,9.539 C51.347,9.182 51.313,8.866 51.244,8.592 C51.175,8.318 51.075,8.089 50.943,7.904 C50.811,7.720 50.649,7.580 50.457,7.485 C50.265,7.389 50.048,7.342 49.805,7.342 C49.567,7.342 49.353,7.389 49.163,7.485 C48.972,7.580 48.811,7.720 48.677,7.904 C48.544,8.089 48.441,8.318 48.370,8.592 C48.298,8.866 48.262,9.182 48.262,9.539 C48.262,9.539 48.262,9.873 48.262,9.873 C48.262,10.231 48.298,10.547 48.370,10.822 C48.441,11.098 48.545,11.328 48.680,11.514 C48.814,11.701 48.978,11.841 49.170,11.936 C49.361,12.032 49.576,12.079 49.813,12.079 C50.306,12.079 50.684,11.892 50.949,11.517 C51.214,11.142 51.347,10.594 51.347,9.873 C51.347,9.873 51.347,9.539 51.347,9.539 Z" id="path-3" class="cls-4" fill-rule="evenodd"/>
    <path d="M105.977,22.537 C105.773,22.486 105.575,22.440 105.383,22.400 C105.191,22.359 105.011,22.339 104.843,22.339 C104.207,22.339 103.712,22.500 103.358,22.823 C103.004,23.146 102.785,23.552 102.701,24.041 C102.701,24.041 102.701,30.421 102.701,30.421 C102.701,30.421 101.045,30.421 101.045,30.421 C101.045,30.421 101.045,20.971 101.045,20.971 C101.045,20.971 102.197,20.971 102.197,20.971 C102.197,20.971 102.521,22.231 102.521,22.231 C102.521,22.231 102.683,22.231 102.683,22.231 C102.959,21.763 103.280,21.400 103.646,21.142 C104.012,20.884 104.471,20.755 105.023,20.755 C105.191,20.755 105.389,20.770 105.617,20.800 C105.845,20.830 106.073,20.881 106.301,20.953 C106.301,20.953 105.977,22.537 105.977,22.537 ZM97.166,29.341 C96.776,29.773 96.296,30.103 95.726,30.331 C95.156,30.559 94.511,30.673 93.791,30.673 C92.999,30.673 92.315,30.547 91.739,30.295 C91.163,30.043 90.686,29.695 90.308,29.251 C89.930,28.807 89.648,28.282 89.462,27.676 C89.276,27.070 89.183,26.413 89.183,25.705 C89.183,24.925 89.285,24.226 89.489,23.608 C89.693,22.990 89.993,22.465 90.389,22.033 C90.785,21.601 91.268,21.271 91.838,21.043 C92.408,20.815 93.059,20.701 93.791,20.701 C94.559,20.701 95.231,20.827 95.807,21.079 C96.383,21.331 96.863,21.682 97.247,22.132 C97.631,22.582 97.916,23.110 98.102,23.716 C98.288,24.322 98.381,24.985 98.381,25.705 C98.381,26.473 98.276,27.163 98.066,27.775 C97.856,28.387 97.556,28.909 97.166,29.341 ZM96.430,24.355 C96.329,23.923 96.169,23.542 95.950,23.212 C95.731,22.882 95.444,22.615 95.088,22.411 C94.733,22.207 94.306,22.105 93.809,22.105 C92.884,22.105 92.182,22.402 91.703,22.996 C91.223,23.590 90.983,24.493 90.983,25.705 C90.983,26.149 91.033,26.584 91.134,27.010 C91.235,27.436 91.397,27.817 91.622,28.153 C91.847,28.489 92.138,28.759 92.494,28.963 C92.849,29.167 93.287,29.269 93.809,29.269 C95.657,29.269 96.581,28.081 96.581,25.705 C96.581,25.237 96.531,24.787 96.430,24.355 ZM86.780,30.502 C86.341,30.616 85.871,30.673 85.367,30.673 C84.527,30.673 83.929,30.445 83.576,29.989 C83.222,29.533 83.045,28.789 83.045,27.757 C83.045,27.757 83.045,22.375 83.045,22.375 C83.045,22.375 81.443,22.375 81.443,22.375 C81.443,22.375 81.443,20.971 81.443,20.971 C81.443,20.971 83.045,20.971 83.045,20.971 C83.045,20.971 83.045,19.063 83.045,19.063 C83.045,19.063 84.701,18.631 84.701,18.631 C84.701,18.631 84.701,20.971 84.701,20.971 C84.701,20.971 87.545,20.971 87.545,20.971 C87.545,20.971 87.545,22.375 87.545,22.375 C87.545,22.375 84.701,22.375 84.701,22.375 C84.701,22.375 84.701,27.199 84.701,27.199 C84.701,27.955 84.797,28.489 84.989,28.801 C85.180,29.113 85.511,29.269 85.979,29.269 C86.278,29.269 86.552,29.236 86.798,29.170 C87.043,29.104 87.322,29.017 87.635,28.909 C87.635,28.909 88.013,30.079 88.013,30.079 C87.628,30.247 87.218,30.388 86.780,30.502 ZM75.049,28.162 C75.287,28.492 75.600,28.759 75.988,28.963 C76.375,29.167 76.849,29.269 77.410,29.269 C77.911,29.269 78.349,29.200 78.725,29.062 C79.101,28.924 79.414,28.759 79.664,28.567 C79.664,28.567 80.201,29.773 80.201,29.773 C79.781,30.073 79.289,30.298 78.725,30.448 C78.161,30.598 77.567,30.673 76.943,30.673 C76.151,30.673 75.476,30.553 74.918,30.313 C74.360,30.073 73.907,29.737 73.559,29.305 C73.211,28.873 72.959,28.351 72.803,27.739 C72.647,27.127 72.569,26.449 72.569,25.705 C72.569,24.109 72.956,22.876 73.730,22.006 C74.504,21.136 75.617,20.701 77.069,20.701 C77.705,20.701 78.257,20.758 78.725,20.872 C79.193,20.986 79.613,21.127 79.985,21.295 C79.985,21.295 79.556,22.645 79.556,22.645 C79.234,22.477 78.885,22.345 78.509,22.249 C78.133,22.153 77.725,22.105 77.284,22.105 C75.341,22.105 74.369,23.305 74.369,25.705 C74.369,26.161 74.422,26.602 74.530,27.028 C74.637,27.454 74.810,27.832 75.049,28.162 ZM68.315,27.091 C68.315,27.091 63.376,27.091 63.376,27.091 C63.376,27.091 62.057,30.421 62.057,30.421 C62.057,30.421 60.257,30.421 60.257,30.421 C60.257,30.421 65.441,17.641 65.441,17.641 C65.441,17.641 66.377,17.641 66.377,17.641 C66.377,17.641 71.579,30.421 71.579,30.421 C71.579,30.421 69.671,30.421 69.671,30.421 C69.671,30.421 68.315,27.091 68.315,27.091 ZM66.354,22.033 C66.354,22.033 65.872,20.107 65.872,20.107 C65.872,20.107 65.837,20.107 65.837,20.107 C65.837,20.107 65.355,22.069 65.355,22.069 C65.355,22.069 63.911,25.615 63.911,25.615 C63.911,25.615 67.798,25.615 67.798,25.615 C67.798,25.615 66.354,22.033 66.354,22.033 Z" id="path-4" class="cls-4" fill-rule="evenodd"/>
  </g>
</svg>
